<svg width="238" height="436" viewBox="0 0 238 436" fill="none" xmlns="http://www.w3.org/2000/svg">
<rect width="238" height="436" rx="16" fill="#F2F2F2"/>
<path d="M91.9041 182.128C91.4879 191.795 99.2126 199.859 108.888 199.859H128.393C138.069 199.859 145.793 191.795 145.377 182.128L144.347 158.212C144.26 156.175 143.397 154.248 141.936 152.825L122.827 134.217C120.497 131.948 116.784 131.948 114.455 134.217L95.3453 152.825C93.8842 154.248 93.0216 156.175 92.9339 158.212L91.9041 182.128Z" fill="#333333"/>
<path d="M96.3259 181.922C96.033 188.745 101.485 194.437 108.315 194.437H128.966C135.796 194.437 141.248 188.745 140.955 181.922L140.025 160.254C139.938 158.22 139.078 156.296 137.622 154.873L122.833 140.432C120.502 138.155 116.78 138.155 114.449 140.432L99.6597 154.873C98.2031 156.296 97.3436 158.22 97.2563 160.254L96.3259 181.922Z" fill="white" fill-opacity="0.2"/>
<path d="M112.48 177.889L117.804 184.11C117.921 184.246 118.131 184.25 118.253 184.118L123.987 177.898C124.164 177.705 124.027 177.394 123.766 177.394H112.708C112.452 177.394 112.313 177.695 112.48 177.889Z" stroke="white"/>
<path d="M91.9041 67.8721C91.4879 58.2053 99.2126 50.1408 108.888 50.1408H128.393C138.069 50.1408 145.793 58.2053 145.377 67.8722L144.347 91.7875C144.26 93.825 143.397 95.7521 141.936 97.1749L122.827 115.783C120.497 118.052 116.784 118.052 114.455 115.783L95.3453 97.1749C93.8842 95.7521 93.0216 93.825 92.9339 91.7875L91.9041 67.8721Z" fill="#333333"/>
<path d="M96.3259 68.0782C96.033 61.255 101.485 55.5634 108.315 55.5634H128.966C135.796 55.5634 141.248 61.255 140.955 68.0782L140.025 89.7462C139.938 91.7802 139.078 93.7043 137.622 95.1267L122.833 109.568C120.502 111.845 116.78 111.845 114.449 109.568L99.6597 95.1267C98.2031 93.7043 97.3436 91.7802 97.2563 89.7462L96.3259 68.0782Z" fill="white" fill-opacity="0.2"/>
<path d="M112.48 72.1105L117.804 65.8903C117.921 65.7538 118.131 65.75 118.253 65.8821L123.987 72.1023C124.164 72.2945 124.027 72.6056 123.766 72.6056H112.708C112.452 72.6056 112.313 72.3052 112.48 72.1105Z" stroke="white"/>
<path d="M176.128 97.9043C185.794 97.4881 193.859 105.213 193.859 114.889V134.393C193.859 144.069 185.794 151.794 176.128 151.377L152.212 150.348C150.175 150.26 148.248 149.397 146.825 147.936L128.217 128.827C125.948 126.497 125.948 122.785 128.217 120.455L146.825 101.345C148.248 99.8844 150.175 99.0218 152.212 98.9341L176.128 97.9043Z" fill="#333333"/>
<path d="M175.922 102.326C182.745 102.033 188.437 107.486 188.437 114.315V134.967C188.437 141.796 182.745 147.249 175.922 146.956L154.254 146.025C152.22 145.938 150.296 145.078 148.873 143.622L134.431 128.833C132.155 126.502 132.155 122.78 134.431 120.449L148.873 105.66C150.296 104.203 152.22 103.344 154.254 103.256L175.922 102.326Z" fill="white" fill-opacity="0.2"/>
<path d="M171.889 118.48L178.109 123.804C178.246 123.921 178.25 124.131 178.117 124.253L171.897 129.987C171.705 130.164 171.394 130.028 171.394 129.766V118.708C171.394 118.452 171.694 118.314 171.889 118.48Z" stroke="white"/>
<path d="M61.8719 97.9043C52.2051 97.4881 44.1406 105.213 44.1406 114.889V134.393C44.1406 144.069 52.2051 151.794 61.8719 151.377L85.7873 150.348C87.8248 150.26 89.7519 149.397 91.1747 147.936L109.783 128.827C112.051 126.497 112.051 122.785 109.783 120.455L91.1747 101.345C89.7519 99.8844 87.8248 99.0218 85.7873 98.9341L61.8719 97.9043Z" fill="#333333"/>
<path d="M62.0778 102.326C55.2546 102.033 49.563 107.486 49.563 114.315V134.967C49.563 141.796 55.2546 147.249 62.0778 146.956L83.7458 146.025C85.7798 145.938 87.7039 145.078 89.1263 143.622L103.568 128.833C105.844 126.502 105.844 122.78 103.568 120.449L89.1263 105.66C87.7039 104.203 85.7798 103.344 83.7458 103.256L62.0778 102.326Z" fill="white" fill-opacity="0.2"/>
<path d="M66.1105 118.48L59.8903 123.804C59.7538 123.921 59.75 124.131 59.8821 124.253L66.1023 129.987C66.2945 130.164 66.6056 130.028 66.6056 129.766V118.708C66.6056 118.452 66.3052 118.314 66.1105 118.48Z" stroke="white"/>
<path fill-rule="evenodd" clip-rule="evenodd" d="M194 310.859C194 290.182 185.633 271.459 172.099 257.892L149.974 280.017C158.018 287.99 163 299.047 163 311.268C163 322.595 158.72 332.922 151.689 340.72L173.428 362.459C186.178 349.015 194 330.85 194 310.859ZM172.033 363.892L150.316 342.176C142.338 350.258 131.254 355.268 119 355.268C106.779 355.268 95.7224 350.286 87.7493 342.242L66.033 363.958C79.6001 377.492 98.3229 385.859 119 385.859C139.711 385.859 158.461 377.465 172.033 363.892ZM119 235.859C139.025 235.859 157.217 243.707 170.668 256.495L148.522 278.641C140.715 271.573 130.36 267.268 119 267.268C107.673 267.268 97.3463 271.548 89.5477 278.578L67.4472 256.478L66.033 257.892L88.0923 279.951C80.0095 287.929 75 299.014 75 311.268C75 322.628 79.3053 332.983 86.3733 340.79L64.6358 362.527C51.8479 349.076 44 330.884 44 310.859C44 269.438 77.5786 235.859 119 235.859Z" fill="#333333" fill-opacity="0.8"/>
<path d="M113.424 253.333L118.746 247.116C118.863 246.979 119.073 246.975 119.194 247.107L124.926 253.325C125.103 253.517 124.967 253.829 124.705 253.829H113.652C113.395 253.829 113.257 253.528 113.424 253.333Z" stroke="white"/>
<path d="M124.966 367.354L119.644 373.573C119.527 373.709 119.317 373.713 119.196 373.581L113.464 367.362C113.287 367.17 113.423 366.859 113.685 366.859L124.738 366.859C124.995 366.859 125.133 367.16 124.966 367.354Z" stroke="white"/>
<path d="M177.526 306.283L183.743 311.605C183.88 311.722 183.884 311.932 183.752 312.054L177.534 317.785C177.342 317.962 177.031 317.826 177.031 317.565L177.031 306.511C177.031 306.255 177.331 306.116 177.526 306.283Z" stroke="white"/>
<path d="M61.4749 317.435L55.2566 312.113C55.1201 311.996 55.1162 311.787 55.2483 311.665L61.4667 305.933C61.6589 305.756 61.97 305.892 61.97 306.154L61.97 317.208C61.97 317.464 61.6696 317.602 61.4749 317.435Z" stroke="white"/>
<path d="M147 309.859C147 324.771 134.912 336.859 120 336.859C105.088 336.859 93 324.771 93 309.859C93 294.947 105.088 282.859 120 282.859C134.912 282.859 147 294.947 147 309.859Z" fill="#333333" fill-opacity="0.8"/>
<path d="M136 309.859C136 318.696 128.837 325.859 120 325.859C111.163 325.859 104 318.696 104 309.859C104 301.023 111.163 293.859 120 293.859C128.837 293.859 136 301.023 136 309.859Z" fill="white" fill-opacity="0.2"/>
<circle cx="142.464" cy="289.323" r="29.4643" fill="#224CAE"/>
<circle cx="142.464" cy="289.323" r="20.0893" fill="url(#paint0_linear_1930_26196)"/>
<defs>
<linearGradient id="paint0_linear_1930_26196" x1="160.233" y1="273.965" x2="137.251" y2="295.346" gradientUnits="userSpaceOnUse">
<stop stop-color="#C4C4C4"/>
<stop offset="0.0001" stop-color="white"/>
<stop offset="0.995485" stop-color="white" stop-opacity="0"/>
</linearGradient>
</defs>
</svg>
