<svg width="150" height="150" viewBox="0 0 150 150" fill="none" xmlns="http://www.w3.org/2000/svg">
<path d="M47.9041 132.128C47.4879 141.795 55.2126 149.859 64.8884 149.859H84.3929C94.0687 149.859 101.793 141.795 101.377 132.128L100.347 108.212C100.26 106.175 99.3971 104.248 97.936 102.825L78.8265 84.2169C76.4969 81.9485 72.7843 81.9485 70.4547 84.2169L51.3453 102.825C49.8842 104.248 49.0216 106.175 48.9339 108.212L47.9041 132.128Z" fill="#333333"/>
<path d="M52.3259 131.922C52.033 138.745 57.4855 144.437 64.3149 144.437H84.9665C91.7959 144.437 97.2484 138.745 96.9555 131.922L96.0251 110.254C95.9378 108.22 95.0783 106.296 93.6217 104.873L78.8326 90.4315C76.5015 88.1552 72.7798 88.1552 70.4487 90.4315L55.6597 104.873C54.2031 106.296 53.3436 108.22 53.2563 110.254L52.3259 131.922Z" fill="white" fill-opacity="0.2"/>
<path d="M68.4799 127.889L73.8042 134.11C73.9211 134.246 74.1309 134.25 74.2527 134.118L79.9865 127.898C80.1637 127.705 80.0274 127.394 79.766 127.394H68.7078C68.4516 127.394 68.3133 127.695 68.4799 127.889Z" stroke="white"/>
<path d="M47.9041 17.8721C47.4879 8.20529 55.2126 0.140839 64.8884 0.140839H84.3929C94.0687 0.140839 101.793 8.2053 101.377 17.8722L100.347 41.7875C100.26 43.825 99.3971 45.7521 97.936 47.1749L78.8265 65.7831C76.4969 68.0515 72.7843 68.0515 70.4547 65.7831L51.3453 47.1749C49.8842 45.7521 49.0216 43.825 48.9339 41.7875L47.9041 17.8721Z" fill="#333333"/>
<path d="M52.3259 18.0782C52.033 11.255 57.4855 5.56339 64.3149 5.56339H84.9665C91.7959 5.56339 97.2484 11.255 96.9555 18.0782L96.0251 39.7462C95.9378 41.7802 95.0783 43.7043 93.6217 45.1267L78.8326 59.5685C76.5015 61.8448 72.7798 61.8448 70.4487 59.5685L55.6597 45.1267C54.2031 43.7043 53.3436 41.7802 53.2563 39.7462L52.3259 18.0782Z" fill="white" fill-opacity="0.2"/>
<path d="M68.4799 22.1105L73.8042 15.8903C73.9211 15.7538 74.1309 15.75 74.2527 15.8821L79.9865 22.1023C80.1637 22.2945 80.0274 22.6056 79.766 22.6056H68.7078C68.4516 22.6056 68.3133 22.3052 68.4799 22.1105Z" stroke="white"/>
<path d="M132.128 47.9043C141.794 47.4881 149.859 55.2128 149.859 64.8886V84.3931C149.859 94.0689 141.794 101.794 132.128 101.377L108.212 100.348C106.175 100.26 104.248 99.3973 102.825 97.9362L84.2167 78.8267C81.9482 76.4971 81.9482 72.7845 84.2167 70.455L102.825 51.3455C104.248 49.8844 106.175 49.0218 108.212 48.9341L132.128 47.9043Z" fill="#333333"/>
<path d="M131.922 52.3261C138.745 52.0331 144.437 57.4856 144.437 64.315V84.9667C144.437 91.7961 138.745 97.2486 131.922 96.9556L110.254 96.0252C108.22 95.9379 106.296 95.0784 104.873 93.6219L90.4314 78.8328C88.1551 76.5017 88.1551 72.78 90.4314 70.4489L104.873 55.6598C106.296 54.2033 108.22 53.3438 110.254 53.2564L131.922 52.3261Z" fill="white" fill-opacity="0.2"/>
<path d="M127.889 68.4801L134.109 73.8044C134.246 73.9212 134.25 74.1311 134.117 74.2529L127.897 79.9867C127.705 80.1639 127.394 80.0276 127.394 79.7661V68.708C127.394 68.4518 127.694 68.3135 127.889 68.4801Z" stroke="white"/>
<path d="M17.8719 47.9043C8.20508 47.4881 0.140625 55.2128 0.140625 64.8886L0.140625 84.3931C0.140625 94.0689 8.20508 101.794 17.8719 101.377L41.7873 100.348C43.8248 100.26 45.7519 99.3973 47.1747 97.9362L65.7829 78.8267C68.0513 76.4971 68.0513 72.7845 65.7829 70.455L47.1747 51.3455C45.7519 49.8844 43.8248 49.0218 41.7873 48.9341L17.8719 47.9043Z" fill="#333333"/>
<path d="M18.0778 52.3261C11.2546 52.0331 5.56299 57.4856 5.56299 64.315L5.56299 84.9667C5.56299 91.7961 11.2546 97.2486 18.0778 96.9556L39.7458 96.0252C41.7798 95.9379 43.7039 95.0784 45.1263 93.6219L59.5681 78.8328C61.8444 76.5017 61.8444 72.78 59.5681 70.4489L45.1263 55.6598C43.7039 54.2033 41.7798 53.3438 39.7458 53.2564L18.0778 52.3261Z" fill="white" fill-opacity="0.2"/>
<path d="M22.1105 68.4801L15.8903 73.8044C15.7538 73.9212 15.75 74.1311 15.8821 74.2529L22.1023 79.9867C22.2945 80.1639 22.6056 80.0276 22.6056 79.7661V68.708C22.6056 68.4518 22.3052 68.3135 22.1105 68.4801Z" stroke="white"/>
</svg>
